<?xml version="1.0" standalone="no"?>
<!DOCTYPE svg PUBLIC "-//W3C//DTD SVG 20010904//EN"
 "http://www.w3.org/TR/2001/REC-SVG-20010904/DTD/svg10.dtd">
<svg version="1.0" xmlns="http://www.w3.org/2000/svg"
 width="300.000000pt" height="121.000000pt" viewBox="0 0 300.000000 121.000000"
 preserveAspectRatio="xMidYMid meet">
<metadata>
Created by potrace 1.10, written by Peter Selinger 2001-2011
</metadata>
<g transform="translate(0.000000,121.000000) scale(0.100000,-0.100000)"
fill="#000000" stroke="none">
<path d="M2234 803 l-40 -45 -31 30 c-40 40 -99 55 -204 50 -98 -5 -174 -35
-198 -79 -13 -24 -13 -31 3 -67 10 -22 41 -62 68 -88 47 -46 51 -48 61 -30 27
43 74 90 104 102 58 25 65 16 24 -25 -65 -65 -66 -115 -4 -235 40 -79 35 -90
-35 -82 -54 7 -92 27 -137 71 -19 19 -36 35 -38 35 -2 0 -21 -38 -41 -84 -44
-98 -41 -112 27 -145 100 -48 223 -16 322 84 94 94 113 185 62 298 -25 55 -26
60 -10 83 l16 25 33 -32 c32 -31 33 -35 36 -125 l3 -92 76 141 76 142 -55 58
c-31 31 -61 57 -67 56 -5 -1 -28 -21 -51 -46z m-126 -23 c46 -21 55 -49 27
-86 -21 -28 -18 -65 10 -126 31 -66 31 -109 1 -173 -39 -85 -163 -175 -241
-175 -45 0 -100 18 -117 38 -14 15 -13 22 7 70 19 47 23 51 35 37 19 -23 97
-61 141 -69 38 -7 88 7 101 27 15 24 7 57 -27 120 -54 98 -46 144 38 217 46
40 37 60 -30 60 -60 0 -101 -19 -145 -67 l-36 -41 -25 26 c-66 72 -72 104 -25
128 52 27 78 32 163 33 59 0 91 -5 123 -19z m222 -15 l35 -36 -35 -65 c-41
-76 -55 -89 -48 -46 4 26 -2 38 -34 69 l-38 37 37 38 c20 21 40 38 43 38 3 0
22 -16 40 -35z"/>
<path d="M1330 827 c-79 -29 -185 -122 -214 -187 l-16 -35 4 69 c3 49 9 73 20
82 9 6 16 25 16 43 l0 31 -456 0 c-407 0 -460 -2 -492 -17 -158 -75 -208 -323
-74 -364 33 -10 45 -9 72 4 30 15 31 15 25 -1 -19 -45 -23 -90 -13 -135 24
-114 140 -166 226 -101 54 41 85 128 45 123 -10 -1 -23 -1 -30 0 -21 2 -33 63
-33 169 0 103 0 104 23 98 59 -17 77 -17 110 -1 24 11 42 31 56 58 l20 42 1
-213 c0 -180 -2 -214 -15 -218 -10 -4 -15 -20 -15 -45 l0 -39 275 0 275 0 0
35 c0 20 -6 37 -15 42 -10 6 -17 31 -21 73 l-5 65 25 -49 c30 -60 78 -111 131
-139 33 -18 57 -22 140 -22 88 0 107 3 150 26 95 48 137 148 82 195 -32 27
-34 34 -8 27 12 -3 23 2 30 15 8 15 4 35 -20 93 -17 41 -37 79 -46 86 -12 9
-10 15 11 37 44 44 25 110 -41 141 -49 24 -175 30 -223 12z m-500 -37 c0 -3
-7 -14 -15 -24 -11 -14 -15 -47 -15 -118 l0 -98 65 0 65 0 0 93 c0 62 -5 101
-15 121 -8 15 -15 29 -15 30 0 0 45 1 100 1 55 0 100 -2 100 -5 0 -3 -7 -14
-15 -24 -22 -28 -22 -468 -1 -508 l15 -28 -99 0 -99 0 15 35 c9 23 14 72 14
150 l0 115 -65 0 -65 0 0 -128 c0 -99 3 -132 16 -150 l15 -22 -100 0 -100 0
15 35 c21 50 20 441 -1 492 -8 19 -15 36 -15 37 0 0 45 1 100 1 55 0 100 -2
100 -5z m717 -16 c19 -14 28 -30 28 -49 0 -26 -10 -33 -118 -89 -132 -68 -187
-108 -187 -135 0 -46 35 -32 171 72 85 65 104 63 146 -23 38 -77 39 -84 14
-70 -32 17 -47 12 -115 -35 -36 -24 -77 -47 -90 -51 -33 -8 -92 13 -111 39
-14 20 -15 17 -15 -46 0 -161 70 -190 177 -74 22 24 47 60 54 80 15 42 30 45
76 18 40 -25 48 -52 28 -91 -49 -96 -235 -130 -344 -63 -54 34 -106 99 -121
151 -15 55 -12 152 6 205 18 52 97 131 168 167 57 29 191 25 233 -6z m-954
-41 c-44 -102 -86 -122 -170 -83 l-43 19 0 -152 c0 -134 2 -156 20 -184 11
-18 27 -33 35 -33 23 0 18 -16 -16 -44 -67 -56 -135 -40 -171 42 -19 42 -20
53 -10 102 7 33 33 89 67 145 30 50 55 98 55 107 0 23 -20 36 -80 51 -89 23
-170 -7 -170 -63 0 -16 5 -32 12 -36 25 -15 83 -3 143 31 35 19 69 35 77 34 9
0 10 -2 1 -5 -7 -3 -35 -37 -64 -75 -83 -113 -122 -132 -175 -85 -24 20 -28
31 -27 73 1 56 27 115 70 155 58 55 73 58 280 58 l192 0 -26 -57z m295 -65 l3
-87 -28 2 c-26 2 -28 6 -31 47 -2 25 -1 64 3 88 6 37 9 43 28 40 20 -3 22 -9
25 -90z m-628 7 c0 -9 -83 -45 -102 -45 -27 0 -22 17 10 34 26 15 92 22 92 11z
m630 -284 c0 -86 -3 -111 -15 -121 -29 -24 -39 5 -43 120 l-4 110 31 0 31 0 0
-109z m517 -67 c-68 -61 -97 -57 -97 14 0 26 2 27 49 24 27 -2 58 1 68 6 37
21 27 -1 -20 -44z"/>
<path d="M1290 740 c-17 -17 -20 -33 -20 -112 l0 -91 23 20 c12 12 47 35 77
53 86 50 100 81 55 125 -32 33 -105 35 -135 5z m101 -20 c31 -17 22 -43 -26
-73 -25 -15 -49 -27 -53 -27 -7 0 -5 73 3 98 5 15 49 16 76 2z"/>
<path d="M2522 814 c-77 -38 -152 -142 -152 -210 0 -40 30 -94 65 -117 l33
-21 -54 -51 c-45 -42 -54 -57 -54 -84 0 -73 117 -141 244 -141 73 0 140 34
200 100 95 105 99 229 10 282 l-33 19 41 37 c106 95 74 166 -90 201 -88 18
-152 14 -210 -15z m220 -28 c65 -15 108 -40 108 -61 0 -18 -78 -105 -94 -105
-6 0 -24 16 -40 36 -69 87 -172 119 -221 69 -31 -30 -31 -40 -1 -70 22 -22 60
-36 220 -80 115 -32 153 -104 105 -201 -37 -77 -143 -153 -215 -154 -46 0
-135 29 -171 56 -46 35 -44 67 9 116 23 21 45 38 50 38 5 0 23 -16 40 -35 63
-72 153 -106 214 -80 30 12 35 19 32 41 -4 38 -40 60 -148 90 -159 44 -220 88
-220 158 0 61 57 142 123 175 49 25 124 27 209 7z m-110 -102 c20 -14 44 -34
54 -45 23 -26 9 -24 -91 9 -53 18 -81 33 -83 44 -7 36 62 31 120 -8z m14 -279
c93 -28 122 -50 79 -61 -33 -8 -100 17 -145 56 -19 16 -31 29 -26 30 6 0 47
-11 92 -25z"/>
</g>
</svg>
